<svg width="343" height="72" viewBox="16 16 343 72" fill="none" xmlns="http://www.w3.org/2000/svg">
<g filter="url(#filter0_d_973_108863)">
<g clip-path="url(#clip0_973_108863)">
<rect width="9.02632" height="72" transform="translate(16 16)" fill="#FCF2EE"/>
<rect width="9.02632" height="72" transform="translate(25.0263 16)" fill="#DE643F"/>
<rect width="9.02632" height="72" transform="translate(34.0526 16)" fill="#FCECE6"/>
<rect width="9.02632" height="72" transform="translate(43.0789 16)" fill="#FCF2EE"/>
<rect width="9.02632" height="72" transform="translate(52.1053 16)" fill="#F7D5CB"/>
<rect width="9.02632" height="72" transform="translate(61.1316 16)" fill="#FCF2EE"/>
<rect width="9.02632" height="72" transform="translate(70.1579 16)" fill="#F3C6B9"/>
<rect width="9.02632" height="72" transform="translate(79.1842 16)" fill="#F6D5CA"/>
<rect width="9.02632" height="72" transform="translate(88.2105 16)" fill="#FCF3EE"/>
<rect width="9.02632" height="72" transform="translate(97.2369 16)" fill="#EFB8A5"/>
<rect width="9.02632" height="72" transform="translate(106.263 16)" fill="#DD623D"/>
<rect width="9.02632" height="72" transform="translate(115.29 16)" fill="#EA987E"/>
<rect width="9.02632" height="72" transform="translate(124.316 16)" fill="#F2C7BA"/>
<rect width="9.02632" height="72" transform="translate(133.342 16)" fill="#F9E2DC"/>
<rect width="9.02632" height="72" transform="translate(142.368 16)" fill="#F3C6B9"/>
<rect width="9.02632" height="72" transform="translate(151.395 16)" fill="#E57F63"/>
<rect width="9.02632" height="72" transform="translate(160.421 16)" fill="#DE643F"/>
<rect width="9.02632" height="72" transform="translate(169.447 16)" fill="#D14C24"/>
<rect width="9.02632" height="72" transform="translate(178.474 16)" fill="#F8F3F5"/>
<rect width="9.02632" height="72" transform="translate(187.5 16)" fill="#F2C6B9"/>
<rect width="9.02632" height="72" transform="translate(196.526 16)" fill="#AD401F"/>
<rect width="9.02632" height="72" transform="translate(205.553 16)" fill="#E9987E"/>
<rect width="9.02632" height="72" transform="translate(214.579 16)" fill="#F7D5CA"/>
<rect width="9.02632" height="72" transform="translate(223.605 16)" fill="#DC562E"/>
<rect width="9.02632" height="72" transform="translate(232.632 16)" fill="#581F0F"/>
<rect width="9.02632" height="72" transform="translate(241.658 16)" fill="#F0B9A7"/>
<rect width="9.02632" height="72" transform="translate(250.684 16)" fill="#9E391A"/>
<rect width="9.02632" height="72" transform="translate(259.711 16)" fill="#9E381B"/>
<rect width="9.02632" height="72" transform="translate(268.737 16)" fill="#DB562E"/>
<rect width="9.02632" height="72" transform="translate(277.763 16)" fill="#E17251"/>
<rect width="9.02632" height="72" transform="translate(286.79 16)" fill="#8B3318"/>
<rect width="9.02632" height="72" transform="translate(295.816 16)" fill="#ECAB96"/>
<rect width="9.02632" height="72" transform="translate(304.842 16)" fill="#DD643F"/>
<rect width="9.02632" height="72" transform="translate(313.868 16)" fill="#8B3318"/>
<rect width="9.02632" height="72" transform="translate(322.895 16)" fill="#57200F"/>
<rect width="9.02632" height="72" transform="translate(331.921 16)" fill="#7A2C16"/>
<rect width="9.02632" height="72" transform="translate(340.947 16)" fill="#46190D"/>
<rect width="9.02632" height="72" transform="translate(349.974 16)" fill="#7A2C16"/>
</g>
</g>
<defs>
<filter id="filter0_d_973_108863" x="-4" y="0" width="383" height="112" filterUnits="userSpaceOnUse" color-interpolation-filters="sRGB">
<feFlood flood-opacity="0" result="BackgroundImageFix"/>
<feColorMatrix in="SourceAlpha" type="matrix" values="0 0 0 0 0 0 0 0 0 0 0 0 0 0 0 0 0 0 127 0" result="hardAlpha"/>
<feOffset dy="4"/>
<feGaussianBlur stdDeviation="10"/>
<feComposite in2="hardAlpha" operator="out"/>
<feColorMatrix type="matrix" values="0 0 0 0 0 0 0 0 0 0 0 0 0 0 0 0 0 0 0.04 0"/>
<feBlend mode="normal" in2="BackgroundImageFix" result="effect1_dropShadow_973_108863"/>
<feBlend mode="normal" in="SourceGraphic" in2="effect1_dropShadow_973_108863" result="shape"/>
</filter>
<clipPath id="clip0_973_108863">
<rect x="16" y="16" width="343" height="72" rx="8" fill="white"/>
</clipPath>
</defs>
</svg>